<?xml version="1.0" encoding="UTF-8" standalone="no"?>
<!-- Created with Inkscape (http://www.inkscape.org/) -->

<svg
   xmlns:dc="http://purl.org/dc/elements/1.1/"
   xmlns:cc="http://creativecommons.org/ns#"
   xmlns:rdf="http://www.w3.org/1999/02/22-rdf-syntax-ns#"
   xmlns:svg="http://www.w3.org/2000/svg"
   xmlns="http://www.w3.org/2000/svg"
   xmlns:sodipodi="http://sodipodi.sourceforge.net/DTD/sodipodi-0.dtd"
   xmlns:inkscape="http://www.inkscape.org/namespaces/inkscape"
   width="62.063629mm"
   height="12.513281mm"
   viewBox="0 0 62.063629 12.513281"
   version="1.1"
   id="svg8"
   inkscape:version="0.92.2 5c3e80d, 2017-08-06"
   sodipodi:docname="desenho.svg">
  <defs
     id="defs2" />
  <sodipodi:namedview
     id="base"
     pagecolor="#ffffff"
     bordercolor="#666666"
     borderopacity="1.0"
     inkscape:pageopacity="0.0"
     inkscape:pageshadow="2"
     inkscape:zoom="3.959798"
     inkscape:cx="126.6372"
     inkscape:cy="0.14157445"
     inkscape:document-units="mm"
     inkscape:current-layer="layer1"
     showgrid="false"
     fit-margin-top="1.5"
     fit-margin-left="0"
     fit-margin-right="0"
     fit-margin-bottom="0"
     inkscape:window-width="1920"
     inkscape:window-height="1051"
     inkscape:window-x="2806"
     inkscape:window-y="0"
     inkscape:window-maximized="1" />
  <metadata
     id="metadata5">
    <rdf:RDF>
      <cc:Work
         rdf:about="">
        <dc:format>image/svg+xml</dc:format>
        <dc:type
           rdf:resource="http://purl.org/dc/dcmitype/StillImage" />
        <dc:title></dc:title>
      </cc:Work>
    </rdf:RDF>
  </metadata>
  <g
     inkscape:label="Layer 1"
     inkscape:groupmode="layer"
     id="layer1"
     transform="translate(-46.091045,-36.518194)">
    <flowRoot
       xml:space="preserve"
       id="flowRoot4569"
       style="font-style:normal;font-variant:normal;font-weight:bold;font-stretch:normal;font-size:13.33333302px;line-height:25px;font-family:'DejaVu Sans';-inkscape-font-specification:'DejaVu Sans, Bold';font-variant-ligatures:normal;font-variant-caps:normal;font-variant-numeric:normal;font-feature-settings:normal;text-align:start;letter-spacing:0px;word-spacing:0px;writing-mode:lr-tb;text-anchor:start;fill:#000000;fill-opacity:1;stroke:none"
       transform="scale(0.26458333)"><flowRegion
         id="flowRegion4571"><rect
           id="rect4573"
           width="34.285713"
           height="68.571426"
           x="285"
           y="216.09111" /></flowRegion><flowPara
         id="flowPara4575"></flowPara></flowRoot>    <g
       style="fill:#778899"
       id="g4514"
       transform="matrix(0.17317968,0,0,0.17243731,67.922215,40.086936)" />
    <g
       style="fill:#778899"
       id="g4516"
       transform="matrix(0.17317968,0,0,0.17243731,67.922215,40.086936)" />
    <g
       style="fill:#778899"
       id="g4518"
       transform="matrix(0.17317968,0,0,0.17243731,67.922215,40.086936)" />
    <g
       style="fill:#778899"
       id="g4520"
       transform="matrix(0.17317968,0,0,0.17243731,67.922215,40.086936)" />
    <g
       style="fill:#778899"
       id="g4522"
       transform="matrix(0.17317968,0,0,0.17243731,67.922215,40.086936)" />
    <g
       style="fill:#778899"
       id="g4524"
       transform="matrix(0.17317968,0,0,0.17243731,67.922215,40.086936)" />
    <g
       style="fill:#778899"
       id="g4526"
       transform="matrix(0.17317968,0,0,0.17243731,67.922215,40.086936)" />
    <g
       style="fill:#778899"
       id="g4528"
       transform="matrix(0.17317968,0,0,0.17243731,67.922215,40.086936)" />
    <g
       style="fill:#778899"
       id="g4530"
       transform="matrix(0.17317968,0,0,0.17243731,67.922215,40.086936)" />
    <g
       style="fill:#778899"
       id="g4532"
       transform="matrix(0.17317968,0,0,0.17243731,67.922215,40.086936)" />
    <g
       style="fill:#778899"
       id="g4534"
       transform="matrix(0.17317968,0,0,0.17243731,67.922215,40.086936)" />
    <g
       style="fill:#778899"
       id="g4536"
       transform="matrix(0.17317968,0,0,0.17243731,67.922215,40.086936)" />
    <g
       style="fill:#778899"
       id="g4538"
       transform="matrix(0.17317968,0,0,0.17243731,67.922215,40.086936)" />
    <g
       style="fill:#778899"
       id="g4540"
       transform="matrix(0.17317968,0,0,0.17243731,67.922215,40.086936)" />
    <g
       style="fill:#778899"
       id="g4542"
       transform="matrix(0.17317968,0,0,0.17243731,67.922215,40.086936)" />
    <g
       style="fill:#778899"
       id="g4579"
       transform="matrix(0.02411016,0,0,0.02217581,69.650895,41.809159)" />
    <g
       style="fill:#778899"
       id="g4581"
       transform="matrix(0.02411016,0,0,0.02217581,69.650895,41.809159)" />
    <g
       style="fill:#778899"
       id="g4583"
       transform="matrix(0.02411016,0,0,0.02217581,69.650895,41.809159)" />
    <g
       style="fill:#778899"
       id="g4585"
       transform="matrix(0.02411016,0,0,0.02217581,69.650895,41.809159)" />
    <g
       style="fill:#778899"
       id="g4587"
       transform="matrix(0.02411016,0,0,0.02217581,69.650895,41.809159)" />
    <g
       style="fill:#778899"
       id="g4589"
       transform="matrix(0.02411016,0,0,0.02217581,69.650895,41.809159)" />
    <g
       style="fill:#778899"
       id="g4591"
       transform="matrix(0.02411016,0,0,0.02217581,69.650895,41.809159)" />
    <g
       style="fill:#778899"
       id="g4593"
       transform="matrix(0.02411016,0,0,0.02217581,69.650895,41.809159)" />
    <g
       style="fill:#778899"
       id="g4595"
       transform="matrix(0.02411016,0,0,0.02217581,69.650895,41.809159)" />
    <g
       style="fill:#778899"
       id="g4597"
       transform="matrix(0.02411016,0,0,0.02217581,69.650895,41.809159)" />
    <g
       style="fill:#778899"
       id="g4599"
       transform="matrix(0.02411016,0,0,0.02217581,69.650895,41.809159)" />
    <g
       style="fill:#778899"
       id="g4601"
       transform="matrix(0.02411016,0,0,0.02217581,69.650895,41.809159)" />
    <g
       style="fill:#778899"
       id="g4603"
       transform="matrix(0.02411016,0,0,0.02217581,69.650895,41.809159)" />
    <g
       style="fill:#778899"
       id="g4605"
       transform="matrix(0.02411016,0,0,0.02217581,69.650895,41.809159)" />
    <g
       style="fill:#778899"
       id="g4607"
       transform="matrix(0.02411016,0,0,0.02217581,69.650895,41.809159)" />
    <g
       id="g5586"
       inkscape:export-xdpi="96"
       inkscape:export-ydpi="96">
      <text
         xml:space="preserve"
         style="font-style:normal;font-variant:normal;font-weight:bold;font-stretch:normal;font-size:3.52777767px;line-height:6.61458302px;font-family:'DejaVu Sans';-inkscape-font-specification:'DejaVu Sans, Bold';font-variant-ligatures:normal;font-variant-caps:normal;font-variant-numeric:normal;font-feature-settings:normal;text-align:start;letter-spacing:0px;word-spacing:0px;writing-mode:lr-tb;text-anchor:start;fill:#356287;fill-opacity:1;stroke:none;stroke-width:0.26458335"
         x="45.05476"
         y="46.595104"
         id="text4506"><tspan
           sodipodi:role="line"
           id="tspan4504"
           x="45.05476"
           y="46.595104"
           style="font-size:11.28888893px;line-height:6.87916708px;letter-spacing:1.21972919px;fill:#356287;fill-opacity:1;stroke-width:0.26458335">Dic</tspan></text>
      <text
         xml:space="preserve"
         style="font-style:normal;font-variant:normal;font-weight:bold;font-stretch:normal;font-size:3.52777767px;line-height:6.61458302px;font-family:'DejaVu Sans';-inkscape-font-specification:'DejaVu Sans, Bold';font-variant-ligatures:normal;font-variant-caps:normal;font-variant-numeric:normal;font-feature-settings:normal;text-align:start;letter-spacing:0px;word-spacing:0px;writing-mode:lr-tb;text-anchor:start;fill:#356287;fill-opacity:1;stroke:none;stroke-width:0.26458335"
         x="86.632141"
         y="46.595104"
         id="text4510"><tspan
           sodipodi:role="line"
           id="tspan4508"
           x="86.632141"
           y="46.595104"
           style="font-size:11.28888893px;letter-spacing:1.21972919px;fill:#356287;fill-opacity:1;stroke-width:0.26458335">gle</tspan></text>
      <path
         inkscape:connector-curvature="0"
         d="m 77.010635,48.101452 -2.113173,-2.188385 c 0.543333,-0.643122 0.841029,-1.452301 0.841029,-2.294692 0,-1.968165 -1.608181,-3.569452 -3.58482,-3.569452 -1.976637,0 -3.584818,1.601287 -3.584818,3.569452 0,1.968165 1.608181,3.569452 3.584818,3.569452 0.742059,0 1.449203,-0.222858 2.05379,-0.645916 l 2.129228,2.20499 c 0.089,0.09203 0.208698,0.142779 0.336972,0.142779 0.121417,0 0.236599,-0.04609 0.324037,-0.129897 0.185787,-0.178007 0.19171,-0.473186 0.01293,-0.658331 z m -4.856964,-7.121368 c 1.461049,0 2.64965,1.183506 2.64965,2.638291 0,1.454784 -1.188601,2.63829 -2.64965,2.63829 -1.461047,0 -2.649648,-1.183506 -2.649648,-2.63829 0,-1.454785 1.188601,-2.638291 2.649648,-2.638291 z"
         id="path4512"
         style="fill:#356287;fill-opacity:1;stroke-width:0.15552729" />
      <path
         style="fill:#d2b48c;stroke-width:0.02081049"
         id="path4577"
         d="m 74.06918,44.0277 c 0.0054,0.02219 0.0082,0.04508 0.0082,0.06837 0,0.114042 -0.06848,0.216467 -0.171315,0.270993 0.01747,0.038 0.02665,0.07917 0.02665,0.121506 0,0.134698 -0.09307,0.249757 -0.223154,0.293645 0.0041,0.01938 0.0061,0.0391 0.0061,0.05894 0,0.135317 -0.094,0.250715 -0.225041,0.294144 -0.097,-0.0777 -0.196617,-0.17204 -0.240341,-0.244189 -0.0011,-0.0023 -0.0019,-0.0048 -0.0032,-0.0071 -8.03e-4,-0.0014 -0.0025,-0.004 -0.0048,-0.0073 -0.0089,-0.01723 -0.01426,-0.03291 -0.01482,-0.04642 -0.0047,-0.111966 0.107672,-0.239599 0.151243,-0.279216 0.03424,-0.03085 0.03478,-0.08141 0.0013,-0.112904 -0.03357,-0.03147 -0.08853,-0.03199 -0.122752,-0.0011 -0.0074,0.0067 -0.155669,0.142262 -0.19425,0.309532 -0.0319,-0.01201 -0.0684,-0.02211 -0.110449,-0.02856 -0.212955,-0.03265 -0.377196,0.104002 -0.384097,0.10983 -0.03511,0.02975 -0.03732,0.07983 -0.0052,0.112304 0.03216,0.03247 0.08695,0.0348 0.122449,0.0055 0.0011,-8.98e-4 0.110057,-0.08981 0.238299,-0.07009 0.123837,0.01898 0.168603,0.08197 0.171792,0.08668 0.0014,0.0022 0.0031,0.0043 0.0047,0.0064 0.06265,0.103942 0.176805,0.207805 0.268245,0.281112 -0.04829,0.118692 -0.172595,0.203534 -0.318283,0.203534 -0.03548,0 -0.07059,-0.0051 -0.104026,-0.01507 -0.05414,0.107416 -0.172486,0.18138 -0.308258,0.18138 -0.187459,0 -0.33996,-0.140266 -0.33996,-0.312685 0,-2.8e-4 0,-5.79e-4 0,-8.78e-4 0,-3.59e-4 0,-7.18e-4 0,-0.0011 v -1.475253 c 0.06376,0.03221 0.14942,0.06891 0.230163,0.08284 0.03229,0.06391 0.07905,0.172359 0.07905,0.245546 0,0.04409 0.03886,0.07983 0.0868,0.07983 0.04793,0 0.0868,-0.03575 0.0868,-0.07983 0,-0.08917 -0.04006,-0.195032 -0.07382,-0.268498 0.101769,-0.04491 0.171727,-0.112665 0.175112,-0.115978 0.03279,-0.03218 0.03103,-0.08268 -0.004,-0.112843 -0.035,-0.03016 -0.0899,-0.02852 -0.122686,0.0036 -6.73e-4,6.58e-4 -0.06911,0.06616 -0.156625,0.09388 -0.002,6.19e-4 -0.0044,9.9e-4 -0.0071,0.0013 -0.0045,-3e-4 -0.0091,-5.18e-4 -0.01367,-1.59e-4 -0.05353,-0.0045 -0.169796,-0.05055 -0.265511,-0.107395 -0.0047,-0.0028 -0.0096,-0.005 -0.01458,-0.0068 v -0.586773 c 0.110947,-0.01449 0.27291,-0.05766 0.360749,-0.184593 0.02573,-0.0372 0.01382,-0.08654 -0.02662,-0.110209 -0.04043,-0.02367 -0.09409,-0.01272 -0.119823,0.02449 -0.04478,0.06475 -0.136227,0.09548 -0.214279,0.108833 v -0.940353 c 0,-0.0052 5.43e-4,-0.01026 0.0016,-0.01518 -0.0011,-0.01 -0.0016,-0.01985 -0.0016,-0.02968 -4.3e-5,-0.172398 0.152458,-0.312665 0.339917,-0.312665 0.09736,0 0.188392,0.0379 0.25234,0.103324 2.81e-4,0 5.42e-4,0 8.24e-4,0 0.114138,0 0.215494,0.05187 0.277163,0.131884 -0.06382,0.0594 -0.1461,0.141503 -0.199219,0.21521 -0.06219,-0.01573 -0.154976,-0.02814 -0.258112,-0.0044 -0.0465,0.0107 -0.07477,0.05405 -0.06314,0.09682 0.01163,0.04277 0.05876,0.06881 0.105262,0.05808 0.06154,-0.01413 0.11813,-0.0082 0.157991,6.19e-4 0.0013,0.05423 0.0261,0.103344 0.05038,0.151343 0.03346,0.06614 0.07139,0.141145 0.06896,0.25804 -9e-4,0.04409 0.03717,0.08051 0.0851,0.08135 5.65e-4,2.1e-5 0.0012,2.1e-5 0.0017,2.1e-5 0.04715,0 0.08584,-0.03475 0.08675,-0.0783 0.0032,-0.153838 -0.04784,-0.254767 -0.0851,-0.328473 -0.03057,-0.06045 -0.04034,-0.08363 -0.03003,-0.106397 0.02599,-0.0574 0.125421,-0.159965 0.212521,-0.240457 0.129543,0.04243 0.223219,0.154976 0.226256,0.287858 0.185182,0.0024 0.334992,0.141763 0.334992,0.312665 0,0.04452 -0.01018,0.08774 -0.02931,0.127234 0.118239,0.04901 0.200717,0.158428 0.200717,0.285243 0,0.021 -0.0023,0.0417 -0.0067,0.06185 -0.08927,0.03211 -0.235912,0.07796 -0.324207,0.07796 -0.07519,0 -0.13716,-0.100011 -0.152827,-0.134778 -0.01801,-0.04085 -0.06859,-0.06057 -0.113052,-0.04399 -0.04442,0.01657 -0.06584,0.06313 -0.04783,0.103982 0.0026,0.006 0.0437,0.09694 0.125377,0.163758 -0.0014,0.0012 -0.003,0.0023 -0.0043,0.0035 -0.05776,0.04932 -0.110752,0.136275 -0.116611,0.146014 -0.02316,0.0386 -0.0079,0.08717 0.03405,0.108473 0.0133,0.0067 0.02769,0.01 0.04188,0.01 0.03057,0 0.06024,-0.0149 0.07606,-0.04127 0.01135,-0.0189 0.05089,-0.07899 0.08274,-0.106179 0.02268,-0.01936 0.06431,-0.03914 0.09253,-0.05021 0.102897,-0.0041 0.233504,-0.04198 0.324011,-0.07257 0.02087,0.04088 0.03231,0.08596 0.03231,0.132762 0,0.06448 -0.02194,0.126755 -0.06124,0.178606 0.06247,0.0578 0.09958,0.136993 0.09958,0.220558 0,0.0571 -0.01716,0.111647 -0.04758,0.158968 -0.08816,-0.0023 -0.281156,-0.01128 -0.417773,-0.04619 -0.0462,-0.01184 -0.09402,0.01307 -0.106869,0.05554 -0.01283,0.04249 0.01421,0.08648 0.06039,0.0983 0.158837,0.04054 0.372292,0.04991 0.465251,0.05209 z m -2.05326,-0.198005 c -0.06373,0.03221 -0.149376,0.06889 -0.230119,0.08284 -0.03229,0.06404 -0.07909,0.172719 -0.07909,0.245567 0,0.04409 -0.03886,0.07983 -0.0868,0.07983 -0.04793,0 -0.0868,-0.03575 -0.0868,-0.07983 0,-0.08917 0.04006,-0.195032 0.07382,-0.268499 -0.101769,-0.0449 -0.171727,-0.112664 -0.175112,-0.115977 -0.03279,-0.03218 -0.03103,-0.08269 0.004,-0.112844 0.03497,-0.03016 0.08992,-0.02852 0.122687,0.0036 4.77e-4,4.59e-4 0.06905,0.06614 0.156624,0.09388 0.002,6.18e-4 0.0044,9.9e-4 0.007,0.0013 0.0046,-3.2e-4 0.0092,-5e-4 0.01382,-1.41e-4 0.05358,-0.0045 0.169883,-0.05052 0.265381,-0.107374 0.0047,-0.0028 0.0096,-0.005 0.01463,-0.0069 v -0.586772 c -0.110947,-0.01449 -0.27291,-0.05766 -0.360748,-0.184594 -0.02573,-0.03721 -0.01382,-0.08653 0.02662,-0.110209 0.04045,-0.02369 0.09409,-0.01272 0.119823,0.02449 0.04478,0.06473 0.136249,0.09542 0.214279,0.108772 v -0.940353 c 0,-0.0052 -5.43e-4,-0.01026 -0.0016,-0.01518 0.0011,-0.01 0.0016,-0.01985 0.0016,-0.02968 2.2e-5,-0.172398 -0.15248,-0.312665 -0.339917,-0.312665 -0.09736,0 -0.188392,0.0379 -0.25234,0.103324 -2.81e-4,0 -5.42e-4,0 -8.24e-4,0 -0.114138,0 -0.215494,0.05187 -0.277163,0.131884 0.06382,0.0594 0.146078,0.141483 0.199198,0.21519 0.06217,-0.01572 0.154954,-0.02816 0.258133,-0.0044 0.0465,0.0107 0.07477,0.05405 0.06314,0.09682 -0.01163,0.04279 -0.05876,0.06881 -0.105262,0.05808 -0.06191,-0.01423 -0.118347,-0.0083 -0.157991,4.2e-4 -0.0013,0.05431 -0.02608,0.103483 -0.05038,0.151523 -0.03346,0.06614 -0.07139,0.141144 -0.06896,0.25804 9e-4,0.04409 -0.03717,0.08051 -0.0851,0.08135 -5.65e-4,1.9e-5 -0.0012,1.9e-5 -0.0017,1.9e-5 -0.04715,0 -0.08584,-0.03475 -0.08675,-0.07829 -0.0032,-0.153837 0.04784,-0.254767 0.0851,-0.328473 0.03057,-0.06045 0.04034,-0.08363 0.03003,-0.106397 -0.02606,-0.0575 -0.125443,-0.160025 -0.2125,-0.240476 -0.129543,0.04241 -0.223262,0.154975 -0.226278,0.287857 -0.185181,0.0024 -0.334992,0.141763 -0.334992,0.312666 0,0.04452 0.01018,0.08773 0.02931,0.127233 -0.118238,0.04901 -0.200717,0.158429 -0.200717,0.285243 0,0.021 0.0023,0.04167 0.0067,0.06183 0.08938,0.03213 0.236174,0.07798 0.324207,0.07798 0.07519,0 0.13716,-0.10001 0.152957,-0.135057 0.01832,-0.04064 0.06896,-0.06016 0.113161,-0.04345 0.04424,0.01667 0.06556,0.06297 0.04758,0.103723 -0.0026,0.006 -0.0437,0.09694 -0.125377,0.163757 0.0014,0.0012 0.003,0.0023 0.0043,0.0035 0.05774,0.04932 0.110752,0.136275 0.116611,0.146015 0.02315,0.0386 0.0079,0.08717 -0.03405,0.108472 -0.0133,0.0067 -0.02769,0.01 -0.04188,0.01 -0.03057,0 -0.06024,-0.01491 -0.07606,-0.04127 -0.01701,-0.02824 -0.05455,-0.08209 -0.08274,-0.106177 -0.02267,-0.01938 -0.06434,-0.03914 -0.09252,-0.05021 -0.102897,-0.0041 -0.233504,-0.04198 -0.324011,-0.07257 -0.02087,0.04088 -0.03231,0.08596 -0.03231,0.132763 0,0.06449 0.02194,0.126754 0.06124,0.178605 -0.06247,0.0578 -0.09958,0.136994 -0.09958,0.220559 0,0.0571 0.01716,0.111646 0.04758,0.158967 0.08816,-0.0023 0.281157,-0.01128 0.417774,-0.04619 0.0462,-0.01177 0.09404,0.01305 0.106869,0.05555 0.01282,0.04249 -0.01421,0.08648 -0.06039,0.09829 -0.158903,0.04059 -0.372379,0.04998 -0.465338,0.05215 -0.0054,0.02219 -0.0082,0.04509 -0.0082,0.06837 0,0.114042 0.06848,0.216467 0.171315,0.270993 -0.01747,0.038 -0.02665,0.07917 -0.02665,0.121506 0,0.134698 0.09307,0.249758 0.223154,0.293646 -0.004,0.01936 -0.0061,0.0391 -0.0061,0.05894 0,0.135297 0.09398,0.250655 0.224976,0.294125 0.09719,-0.07789 0.196985,-0.17246 0.240622,-0.244589 0.0011,-0.0023 0.0018,-0.0045 0.0031,-0.0067 8.03e-4,-0.0014 0.0024,-0.004 0.0047,-0.0071 0.009,-0.01731 0.01441,-0.03309 0.01498,-0.04662 0.0056,-0.1339 -0.149659,-0.277798 -0.151243,-0.279216 -0.03424,-0.03085 -0.03478,-0.0814 -0.0013,-0.112903 0.03354,-0.03147 0.08852,-0.03198 0.122753,-0.0011 0.0074,0.0067 0.15567,0.142262 0.194251,0.309532 0.0319,-0.01201 0.06839,-0.02211 0.110449,-0.02856 0.213063,-0.03272 0.377218,0.104003 0.384095,0.10983 0.03526,0.02988 0.03752,0.08037 0.005,0.112804 -0.03248,0.03244 -0.08738,0.03451 -0.122643,0.0046 -7.16e-4,-5.98e-4 -0.109689,-0.08945 -0.237953,-0.06979 -0.125942,0.0193 -0.170078,0.08411 -0.1719,0.08686 -0.0016,0.0027 -0.0035,0.0053 -0.0054,0.0077 -0.06284,0.103444 -0.176349,0.206647 -0.267334,0.279595 0.04829,0.118691 0.172595,0.203533 0.318284,0.203533 0.03548,0 0.07059,-0.0051 0.104025,-0.01507 0.05414,0.107415 0.172487,0.18138 0.308258,0.18138 0.18746,0 0.339961,-0.140266 0.339961,-0.312685 0,-2.79e-4 0,-5.59e-4 0,-8.59e-4 0,-3.59e-4 0,-7.18e-4 0,-0.0011 v -1.475252 z"
         inkscape:connector-curvature="0" />
      <path
         style="fill:#356287;fill-opacity:1;stroke-width:0.01396086"
         d="m 79.935525,46.940579 c -0.0937,-0.04256 -0.120224,-0.101503 -0.134362,-0.298655 l -0.01198,-0.167198 0.36418,-0.762075 c 0.200301,-0.419143 0.374288,-0.773242 0.386637,-0.786889 0.02114,-0.02335 0.08406,-0.02481 1.072626,-0.02481 0.823975,0 1.052941,0.0038 1.06303,0.01745 0.007,0.0096 0.05149,0.09912 0.09871,0.198943 0.04722,0.09982 0.209186,0.439071 0.359922,0.753887 l 0.274066,0.572397 -0.0049,0.181726 c -0.0058,0.214759 -0.02377,0.260226 -0.122744,0.310393 l -0.06196,0.03142 -1.613014,-3.08e-4 c -1.542363,-2.93e-4 -1.615516,-0.0014 -1.670188,-0.02628 z M 79.17971,46.112057 c -0.427082,-0.41505 -0.760712,-0.979664 -0.918003,-1.553573 -0.412198,-1.503993 0.227714,-3.11638 1.549503,-3.904279 0.573518,-0.341866 1.036095,-0.4769 1.697959,-0.495659 0.471967,-0.01338 0.801689,0.0312 1.196593,0.161773 0.984389,0.325486 1.748193,1.040153 2.143247,2.005368 0.168696,0.412166 0.247321,0.823651 0.247985,1.297844 3.93e-4,0.279251 -0.01187,0.419845 -0.05819,0.667148 -0.126435,0.675023 -0.484013,1.339135 -0.981188,1.822318 -0.10616,0.103173 -0.124523,0.115622 -0.164732,0.111687 -0.04427,-0.0043 -0.04621,-0.0075 -0.08949,-0.144039 -0.0266,-0.08395 -0.165243,-0.392864 -0.347749,-0.77483 l -0.303513,-0.635217 0.0081,-0.279218 c 0.0056,-0.191735 0.01492,-0.301088 0.02972,-0.349022 0.06163,-0.199488 0.07744,-0.465954 0.04099,-0.690679 -0.108042,-0.666212 -0.614784,-1.190282 -1.290763,-1.3349 -0.163083,-0.0349 -0.479116,-0.0349 -0.642198,0 -0.883449,0.189003 -1.449231,1.036545 -1.27763,1.913892 0.01136,0.05804 0.02159,0.230955 0.02519,0.425807 l 0.0061,0.328081 -0.191938,0.404864 c -0.238499,0.503083 -0.478146,1.016176 -0.506978,1.085457 -0.01198,0.02879 -0.02916,0.05234 -0.03816,0.05234 -0.0089,0 -0.0697,-0.05183 -0.134896,-0.115177 z m 1.376273,-1.703226 c -0.0042,-0.278025 0.0034,-0.534526 0.01696,-0.577073 0.01631,-0.05111 0.07443,-0.109871 0.129178,-0.130554 0.02624,-0.0099 0.330476,-0.01485 0.915862,-0.01485 h 0.876561 l 0.04616,0.03142 c 0.104538,0.07115 0.104097,0.06923 0.108716,0.47217 l 0.0042,0.361992 H 81.605896 80.55817 Z"
         id="path4741"
         inkscape:connector-curvature="0" />
    </g>
  </g>
</svg>
